<?xml version="1.0" encoding="utf-8"?>
<!-- Generator: Adobe Illustrator 28.0.0, SVG Export Plug-In . SVG Version: 6.00 Build 0)  -->
<svg version="1.1" id="Layer_1" xmlns="http://www.w3.org/2000/svg" xmlns:xlink="http://www.w3.org/1999/xlink" x="0px" y="0px"
	 viewBox="0 0 2500 2500" style="enable-background:new 0 0 2500 2500;" xml:space="preserve">
<style type="text/css">
	.st0{fill:#A697FF;}
	.st1{fill:#7F5EFF;}
	.st2{fill:#5041AA;}
</style>
<path class="st0" d="M1648.2,65.6c-125-42-259-63.6-398.2-63.6C559.3,2,0,553.9,0,1235.5v7.6C3.9,565.3,561.9,17.3,1250,17.3
	c139.2,0,273.2,22.9,398.2,63.6c493.6,162.8,849.2,621.8,851.8,1162.2v-7.6C2501.3,691.2,2144.3,229.6,1648.2,65.6L1648.2,65.6z"/>
<ellipse class="st1" cx="1250" cy="1250.5" rx="1250" ry="1233.5"/>
<path class="st2" d="M2500,1256.9c-2.6,540.4-359.5,999.5-851.8,1162.2c-125,42-259,63.6-398.2,63.6
	c-688.1,0-1246.1-548-1250-1225.8v7.6C0,1946.1,559.3,2498,1250,2498c139.2,0,273.2-22.9,398.2-63.6
	c494.8-164,851.8-625.6,851.8-1169.9V1256.9z"/>
<image style="overflow:visible;" width="500" height="500" xlink:href="LC Work/AI Taskforce/stars_ai_icon.png"  transform="matrix(4.9314 0 0 4.9314 17.1499 17)">
</image>
</svg>
