<?xml version="1.0" encoding="utf-8"?>
<!-- Generator: Adobe Illustrator 26.3.1, SVG Export Plug-In . SVG Version: 6.00 Build 0)  -->
<svg version="1.1" xmlns="http://www.w3.org/2000/svg" xmlns:xlink="http://www.w3.org/1999/xlink" x="0px" y="0px"
	 viewBox="0 0 165.2 165.2" style="enable-background:new 0 0 165.2 165.2;" xml:space="preserve">
<style type="text/css">
	.st0{fill:#DCDDDE;}
	.st1{fill:#A51D39;}
	.st2{fill:#DE7F29;}
</style>
<g id="Layer_2">
	<rect x="-8" y="-16" class="st0" width="184" height="205"/>
</g>
<g id="Layer_1">
	<g>
		<path class="st1" d="M82.2,138.9c0,5.8,0,11.5,0,17.6c-2.6-0.4-5.2-0.7-7.8-1.2c-25.5-5.7-44.8-19.7-55-44.1
			c-10.3-24.8-6.6-48.4,9.9-69.5c13.3-17,31.2-26.2,52.5-28.4c20.7-2.2,39.6,3.1,56.3,15.6c0.6,0.4,1.1,0.9,1.6,1.3
			c-4.2,4.2-8.2,8.2-12.4,12.4c-4.3-3.2-9.1-5.9-14.2-8c-23-9.1-50.5-3.8-67.7,14.9c-8.8,9.7-13.8,21-14,34.2
			c-0.3,17.7,7.2,31.9,20.9,42.9C61,133.3,69.2,136.6,82.2,138.9z"/>
		<path class="st2" d="M97.9,104.9c0,5.9,0,11.6,0,17.5c-5,0.9-10,0.9-15,0.1c-8.3-1.4-15.8-4.7-22.2-10.2
			c-17.1-14.8-17-40.7,0.3-55.3c7.6-6.4,16.4-9.7,26.4-10.4c13.3-0.8,25.2,2.8,35.5,11.1c9.8,7.9,15.6,18.4,18,30.7
			c3.6,19-1,36.1-13.4,51c-7.2,8.7-16.5,14.2-27.7,16.5c-0.2,0-0.4,0.1-0.7,0.1c-0.2,0-0.3,0-0.6-0.1c-0.1-0.4-0.2-0.8-0.2-1.2
			c0-5,0-9.9,0-14.9c0-0.7,0-1.3,1-1.6c10.6-3.3,17.3-10.8,21.6-20.6c5-11.5,5.7-23.2,0.3-34.6c-5.3-11.1-14.5-17.2-26.7-18.9
			c-7.4-1-14.4,0.3-20.5,4.7c-12.6,9-11.4,25.9,2.2,33.4c6.5,3.6,13.4,4.5,20.6,2.9C97.2,105,97.5,105,97.9,104.9z"/>
	</g>
</g>
</svg>
