<?xml version="1.0" encoding="UTF-8"?><svg id="Layer_1" xmlns="http://www.w3.org/2000/svg" viewBox="0 0 128.43 143.68"><defs><style>.cls-1{fill:#363436;}</style></defs><g id="Layer_1-2"><g><path class="cls-1" d="M68.54,126.08v17.6c-2.6-.4-5.2-.7-7.8-1.2-25.5-5.7-44.8-19.7-55-44.1C-4.56,73.58-.86,49.98,15.64,28.88,28.94,11.88,46.84,2.68,68.14,.48c20.7-2.2,39.6,3.1,56.3,15.6,.6,.4,1.1,.9,1.6,1.3-4.2,4.2-8.2,8.2-12.4,12.4-4.3-3.2-9.1-5.9-14.2-8-23-9.1-50.5-3.8-67.7,14.9-8.8,9.7-13.8,21-14,34.2-.3,17.7,7.2,31.9,20.9,42.9,8.7,6.7,16.9,10,29.9,12.3Z"/><path class="cls-1" d="M84.24,92.08v17.5c-5,.9-10,.9-15,.1-8.3-1.4-15.8-4.7-22.2-10.2-17.1-14.8-17-40.7,.3-55.3,7.6-6.4,16.4-9.7,26.4-10.4,13.3-.8,25.2,2.8,35.5,11.1,9.8,7.9,15.6,18.4,18,30.7,3.6,19-1,36.1-13.4,51-7.2,8.7-16.5,14.2-27.7,16.5-.2,0-.4,.1-.7,.1-.2,0-.3,0-.6-.1-.1-.4-.2-.8-.2-1.2v-14.9c0-.7,0-1.3,1-1.6,10.6-3.3,17.3-10.8,21.6-20.6,5-11.5,5.7-23.2,.3-34.6-5.3-11.1-14.5-17.2-26.7-18.9-7.4-1-14.4,.3-20.5,4.7-12.6,9-11.4,25.9,2.2,33.4,6.5,3.6,13.4,4.5,20.6,2.9,.4-.1,.7-.1,1.1-.2Z"/></g></g></svg>