<?xml version="1.0" encoding="UTF-8"?><svg id="Layer_1" xmlns="http://www.w3.org/2000/svg" viewBox="0 0 83.83 93.78"><defs><style>.cls-1{fill:#f1f2f2;}</style></defs><g id="Layer_1-2"><g><path class="cls-1" d="M44.74,82.3v11.49c-1.7-.26-3.39-.46-5.09-.78-16.64-3.72-29.24-12.86-35.9-28.78C-2.97,48.03-.56,32.63,10.21,18.85,18.89,7.76,30.58,1.75,44.48,.32c13.51-1.44,25.85,2.02,36.75,10.18,.39,.26,.72,.59,1.04,.85-2.74,2.74-5.35,5.35-8.09,8.09-2.81-2.09-5.94-3.85-9.27-5.22-15.01-5.94-32.96-2.48-44.19,9.73-5.74,6.33-9.01,13.71-9.14,22.32-.2,11.55,4.7,20.82,13.64,28,5.68,4.37,11.03,6.53,19.52,8.03Z"/><path class="cls-1" d="M54.99,60.1v11.42c-3.26,.59-6.53,.59-9.79,.07-5.42-.91-10.31-3.07-14.49-6.66-11.16-9.66-11.1-26.57,.2-36.09,4.96-4.18,10.7-6.33,17.23-6.79,8.68-.52,16.45,1.83,23.17,7.25,6.4,5.16,10.18,12.01,11.75,20.04,2.35,12.4-.65,23.56-8.75,33.29-4.7,5.68-10.77,9.27-18.08,10.77-.13,0-.26,.07-.46,.07-.13,0-.2,0-.39-.07-.07-.26-.13-.52-.13-.78v-9.73c0-.46,0-.85,.65-1.04,6.92-2.15,11.29-7.05,14.1-13.45,3.26-7.51,3.72-15.14,.2-22.58-3.46-7.25-9.46-11.23-17.43-12.34-4.83-.65-9.4,.2-13.38,3.07-8.22,5.87-7.44,16.91,1.44,21.8,4.24,2.35,8.75,2.94,13.45,1.89,.26-.07,.46-.07,.72-.13Z"/></g></g></svg>