<?xml version="1.0" encoding="UTF-8"?><svg id="Layer_1" xmlns="http://www.w3.org/2000/svg" viewBox="0 0 128.45 143.75"><defs><style>.cls-1{fill:#de7f29;}.cls-2{fill:#a51d39;}</style></defs><path class="cls-2" d="M68.48,126.17v17.58c-2.62-.41-5.23-.67-7.76-1.24-25.55-5.69-44.81-19.71-54.96-44.11C-4.57,73.6-.84,50,15.65,28.88,28.9,11.9,46.83,2.7,68.19,.48c20.75-2.17,39.59,3.05,56.33,15.6,.57,.43,1.11,.89,1.61,1.3-4.15,4.15-8.24,8.23-12.41,12.4-4.31-3.23-9.07-5.94-14.21-7.97-22.99-9.09-50.52-3.82-67.67,14.89-8.85,9.66-13.84,21.04-14.04,34.16-.26,17.71,7.2,31.9,20.9,42.85,8.58,6.86,16.79,10.13,29.78,12.47Z"/><path class="cls-1" d="M84.23,92.15v17.5c-5.02,.86-10.01,.86-14.96,.05-8.31-1.35-15.76-4.65-22.19-10.2-17.13-14.78-16.99-40.73,.33-55.3,7.63-6.42,16.43-9.75,26.37-10.37,13.28-.83,25.16,2.75,35.48,11.11,9.8,7.94,15.64,18.41,17.98,30.67,3.64,19.05-1.05,36.13-13.41,50.97-7.23,8.68-16.54,14.19-27.68,16.46-.21,.04-.43,.08-.65,.09-.16,0-.33-.02-.62-.05-.05-.4-.15-.81-.15-1.23-.01-4.96,0-9.91-.01-14.87,0-.74,.01-1.3,.97-1.6,10.58-3.32,17.29-10.78,21.59-20.62,5.01-11.47,5.74-23.15,.27-34.63-5.3-11.13-14.49-17.21-26.66-18.88-7.44-1.02-14.38,.33-20.53,4.75-12.6,9.04-11.45,25.87,2.24,33.41,6.48,3.57,13.37,4.49,20.59,2.91,.31-.07,.62-.11,1.03-.18Z"/></svg>