<?xml version="1.0" encoding="utf-8"?>
<!-- Generator: Adobe Illustrator 28.2.0, SVG Export Plug-In . SVG Version: 6.00 Build 0)  -->
<svg version="1.1" id="Layer_1" xmlns="http://www.w3.org/2000/svg" xmlns:xlink="http://www.w3.org/1999/xlink" x="0px" y="0px"
	 viewBox="0 0 2500 2500" style="enable-background:new 0 0 2500 2500;" xml:space="preserve">
<style type="text/css">
	.st0{fill:#A697FF;}
	.st1{fill:#7F5EFF;}
	.st2{fill:#FFFFFF;}
	.st3{fill:#5041AA;}
</style>
<path class="st0" d="M1648.2,65.6c-125-42-259-63.6-398.2-63.6C559.3,2,0,553.9,0,1235.5v7.6C3.9,565.3,561.9,17.3,1250,17.3
	c139.2,0,273.2,22.9,398.2,63.6c493.6,162.8,849.2,621.8,851.8,1162.2v-7.6C2501.3,691.2,2144.3,229.6,1648.2,65.6L1648.2,65.6z"/>
<g>
	<ellipse class="st1" cx="1250" cy="1250.5" rx="1250" ry="1233.5"/>
</g>
<path class="st2" d="M1669.6,1736.9c-0.2,119-0.6,118.1-116.1,158.8c-203.3,71.6-402.2,59.1-599.1-24.4
	c-38.1-16.1-55.5-39.2-52.5-80.8c2.9-40.4-0.5-81.2,1.3-121.7c2-47.1,21.6-60.6,64.9-42.8c211.8,87,423.1,87.2,635.1,1.2
	c47-19,64.9-5.3,66.4,46.3C1670.2,1694.5,1669.7,1715.8,1669.6,1736.9z"/>
<path class="st3" d="M2500,1256.9c-2.6,540.4-359.5,999.5-851.8,1162.2c-125,42-259,63.6-398.2,63.6
	c-688.1,0-1246.1-548-1250-1225.8v7.6C0,1946.1,559.3,2498,1250,2498c139.2,0,273.2-22.9,398.2-63.6
	c494.8-164,851.8-625.6,851.8-1169.9V1256.9z"/>
<path class="st2" d="M945.2,1311.7c-119-0.2-118.1-0.6-158.8-116.1c-71.6-203.3-59.1-402.2,24.4-599.1
	c16.1-38.1,39.2-55.5,80.8-52.5c40.4,2.9,81.2-0.5,121.7,1.3c47.1,2,60.6,21.6,42.8,64.9c-87,211.8-87.2,423.1-1.2,635.1
	c19,47,5.3,64.9-46.3,66.4C987.6,1312.2,966.3,1311.8,945.2,1311.7z"/>
<path class="st2" d="M1642,1311.7c-119-0.2-118.1-0.6-158.8-116.1c-71.6-203.3-59.1-402.2,24.4-599.1c16.1-38.1,39.2-55.5,80.8-52.5
	c40.4,2.9,81.2-0.5,121.7,1.3c47.1,2,60.6,21.6,42.8,64.9c-87,211.8-87.2,423.1-1.2,635.1c19,47,5.3,64.9-46.3,66.4
	C1684.4,1312.2,1663.1,1311.8,1642,1311.7z"/>
</svg>
