<?xml version="1.0" encoding="utf-8"?>
<!-- Generator: Adobe Illustrator 28.2.0, SVG Export Plug-In . SVG Version: 6.00 Build 0)  -->
<svg version="1.1" id="Layer_1" xmlns="http://www.w3.org/2000/svg" xmlns:xlink="http://www.w3.org/1999/xlink" x="0px" y="0px"
	 viewBox="0 0 2500 2500" style="enable-background:new 0 0 2500 2500;" xml:space="preserve">
<style type="text/css">
	.st0{fill:#A697FF;}
	.st1{fill:#7F5EFF;}
	.st2{fill:#5041AA;}
	.st3{fill:#FFFFFF;}
</style>
<path class="st0" d="M1648.2,65.6c-125-42-259-63.6-398.2-63.6C559.3,2,0,553.9,0,1235.5v7.6C3.9,565.3,561.9,17.3,1250,17.3
	c139.2,0,273.2,22.9,398.2,63.6c493.6,162.8,849.2,621.8,851.8,1162.2v-7.6C2501.3,691.2,2144.3,229.6,1648.2,65.6L1648.2,65.6z"/>
<g>
	<ellipse class="st1" cx="1250" cy="1250.5" rx="1250" ry="1233.5"/>
</g>
<path class="st2" d="M2500,1256.9c-2.6,540.4-359.5,999.5-851.8,1162.2c-125,42-259,63.6-398.2,63.6
	c-688.1,0-1246.1-548-1250-1225.8v7.6C0,1946.1,559.3,2498,1250,2498c139.2,0,273.2-22.9,398.2-63.6
	c494.8-164,851.8-625.6,851.8-1169.9V1256.9z"/>
<path class="st3" d="M1184.5,113.3c43.2,0,86.4,0,129.5,0c6.3,1.3,12.5,2.8,18.8,3.7c60.3,9.4,121.6,14.4,180.8,28.6
	c567.5,136.3,932.8,707.6,821.7,1282.6c-42.6,220.5-142.3,411.2-299.9,570.7c-165.2,167.1-363.7,272.4-595.6,312.4
	c-41.7,7.2-83.8,11.4-125.8,17.1c-43.2,0-86.4,0-129.5,0c-29.2-3.5-58.4-6.5-87.5-10.6c-218-30.9-410.7-118.1-575.6-264
	c-194.3-171.9-315.8-385.8-360.5-642.4c-7.3-41.6-11.4-83.8-17-125.7c0-43.3,0-86.5,0-129.8c1.3-7.6,2.9-15.2,3.9-22.9
	c5.3-40,8.3-80.3,15.8-119.8C205.6,792.6,305.8,602,463.3,442.7c165.2-167.1,363.6-272.3,595.5-312.3
	C1100.5,123.2,1142.6,118.9,1184.5,113.3z M987.1,1329c-254-183.1-251.1-509.7-88.2-692c172.1-192.7,461.9-214.7,651.3-48.9
	c102.8,90,159.9,203.4,163.2,340.2c4,167.4-67,299.7-201.7,400.2c245.3,99.6,402.7,275.6,474.9,528.7
	c311.6-347.6,349.8-961-78.8-1356.5c-415-383-1061.1-334.3-1415.7,105c-354,438.6-227.2,989.5,20.6,1249.6
	C584.2,1602.9,742.6,1428.6,987.1,1329z M1266.5,2198.7c23-1.9,64.7-3.9,106-9c184.5-22.9,348.2-95,492.4-212
	c4.8-3.9,8.4-13.2,7.6-19.4c-45.3-349.1-377.6-595-724.5-536.6c-273,46-483,261.5-521.5,535.8c-1,7,4.2,17.7,9.9,22.3
	C814.9,2123.5,1019.1,2195.4,1266.5,2198.7z M1248.8,1278.9c184,0.7,334.5-149,336.4-334.4c1.9-184-150.6-337.6-335.4-337.9
	c-184.7-0.3-337.1,152.3-336.4,336.9C914,1128.2,1064,1278.3,1248.8,1278.9z"/>
</svg>
