<?xml version="1.0" encoding="utf-8"?>
<!-- Generator: Adobe Illustrator 28.2.0, SVG Export Plug-In . SVG Version: 6.00 Build 0)  -->
<svg version="1.1" id="Layer_1" xmlns="http://www.w3.org/2000/svg" xmlns:xlink="http://www.w3.org/1999/xlink" x="0px" y="0px"
	 viewBox="0 0 2500 2500" style="enable-background:new 0 0 2500 2500;" xml:space="preserve">
<style type="text/css">
	.st0{fill:#A697FF;}
	.st1{fill:#7F5EFF;}
	.st2{fill:#FFFFFF;}
	.st3{fill:#5041AA;}
</style>
<path class="st0" d="M1648.2,65.6c-125-42-259-63.6-398.2-63.6C559.3,2,0,553.9,0,1235.5v7.6C3.9,565.3,561.9,17.3,1250,17.3
	c139.2,0,273.2,22.9,398.2,63.6c493.6,162.8,849.2,621.8,851.8,1162.2v-7.6C2501.3,691.2,2144.3,229.6,1648.2,65.6L1648.2,65.6z"/>
<g>
	<ellipse class="st1" cx="1250" cy="1250.5" rx="1250" ry="1233.5"/>
</g>
<g>
	<path class="st2" d="M1077.4,1943.3c0-68.2-1.5-129,1.1-189.6c0.6-13.6,12.1-31.3,24-39.2c100.9-66.9,202.7-132.4,305.1-196.9
		c13.1-8.3,31.5-11.3,47.5-11.7c50.8-1.5,101.6,0.1,152.4-1c68.5-1.4,116.2-36,117.6-102.5c3.6-175.8,1.1-351.9-2.4-527.7
		c-0.9-45.2-38.5-81-88.2-85c-102.6-8.4-205.7-15.9-308.5-15.3c-150.6,0.8-301.3,7.4-451.8,14.9c-61.6,3.1-96.8,39.8-97.7,99.9
		c-2.5,171.3-4.5,342.8-1.2,514.1c1.3,64.6,47,100,113.1,102.1c46.1,1.4,92.4,1.4,138.6,0.1c27.6-0.7,39.3,9.7,38.7,37.1
		c-1,47.1,1,94.3-1.3,141.2c-0.6,11.9-12.9,33.5-19.5,33.4c-93.2-1.4-188.4,17.5-278.8-18.5c-143.6-57.2-212.1-168.1-213.9-316
		c-2.2-177.5,1.3-355.2,8.1-532.6c5.1-134.4,130.6-265.3,272.2-272.8c213.2-11.3,427.1-10.4,640.8-12.5
		c62.9-0.6,126.3,3.1,188.8,10.4c155.7,18.1,271.5,135.9,278,291.7c7.5,177.3,10.9,355.2,6.7,532.6
		c-4.5,190.5-147.9,326.8-341.6,317.3c-129.1-6.3-236.3,25.4-336.1,102.9C1211.4,1864.4,1146.1,1899.5,1077.4,1943.3z"/>
	<path class="st2" d="M1580.1,1173.6c-0.2,102.5-0.5,101.7-100,136.8c-175.1,61.7-346.4,50.9-516-21c-32.8-13.9-47.8-33.8-45.2-69.6
		c2.5-34.8-0.4-69.9,1.1-104.8c1.7-40.6,18.6-52.2,55.9-36.9c182.4,74.9,364.4,75.1,547,1c40.5-16.4,55.9-4.6,57.2,39.9
		C1580.6,1137.1,1580.2,1155.4,1580.1,1173.6z"/>
</g>
<path class="st3" d="M2500,1256.9c-2.6,540.4-359.5,999.5-851.8,1162.2c-125,42-259,63.6-398.2,63.6
	C561.9,2482.7,3.9,1934.7,0,1256.9v7.6C0,1946.1,559.3,2498,1250,2498c139.2,0,273.2-22.9,398.2-63.6
	c494.8-164,851.8-625.6,851.8-1169.9V1256.9z"/>
</svg>
