<?xml version="1.0" encoding="utf-8"?>
<!-- Generator: Adobe Illustrator 28.0.0, SVG Export Plug-In . SVG Version: 6.00 Build 0)  -->
<svg version="1.1" id="Layer_1" xmlns="http://www.w3.org/2000/svg" xmlns:xlink="http://www.w3.org/1999/xlink" x="0px" y="0px"
	 viewBox="0 0 2500 2500" style="enable-background:new 0 0 2500 2500;" xml:space="preserve">
<style type="text/css">
	.st0{fill:#ED1C24;}
	.st1{fill:#A81621;}
	.st2{fill:#FFFFFF;}
	.st3{fill:#E8525D;}
</style>
<g>
	<circle class="st0" cx="1250.6" cy="1249.4" r="1249.4"/>
	<path class="st1" d="M1705.3,1789H853.9c-121.1,0-226.7-91.4-226.7-212.5v-1.3v70.8c0,121.1,105.6,226.7,226.7,226.7h851.4
		c122.4,0,226.7-106.9,226.7-226.7v-70.8C1932,1696.3,1826.4,1789,1705.3,1789z M626,1178.5v-96.6L467.5,820.5
		c-9-14.2-12.9-27-11.6-39.9v110.8c0,10.3,3.9,20.6,10.3,32.2L626,1178.5z"/>
	<path class="st2" d="M1705.3,738H512.6c-47.7,0-74.7,41.2-42.5,85L626,1093.5v483c0,123.6,90.2,226.7,212.5,226.7H1704
		c122.4,0,226.7-104.3,226.7-226.7V966C1932,842.3,1827.7,738,1705.3,738z"/>
	<g>
		<path class="st3" d="M1691.1,1079.3h-823c-36.1,0-70.8-21.9-70.8-56.7c0-34.8,34.8-56.7,70.8-56.7h823c36.1,0,70.8,21.9,70.8,56.7
			C1762,1057.4,1727.2,1079.3,1691.1,1079.3L1691.1,1079.3z M1691.1,1306h-823c-36.1,0-70.8-21.9-70.8-56.7
			c0-34.8,34.8-56.7,70.8-56.7h823c36.1,0,70.8,21.9,70.8,56.7C1762,1284.1,1727.2,1306,1691.1,1306L1691.1,1306z M1463.2,1534
			H866.8c-36.1,0-70.8-21.9-70.8-56.7c0-34.8,34.8-56.7,70.8-56.7h596.3c36.1,0,70.8,21.9,70.8,56.7S1499.2,1534,1463.2,1534z"/>
	</g>
	<path class="st1" d="M2500,1242.9c-2.6,547.4-359.4,1012.4-851.4,1177.2c-124.9,42.5-258.9,64.4-398,64.4
		C562.9,2484.5,5.2,1929.4,1.3,1242.9v7.7C1.3,1941,560.3,2500,1250.6,2500c139.1,0,273.1-23.2,398-64.4
		c494.6-166.1,851.4-633.7,851.4-1185V1242.9z"/>
	<path class="st3" d="M1647.3,64.4C1522.4,21.9,1388.5,0,1249.4,0C559,0,0,559,0,1249.4v7.7C3.9,570.6,561.6,15.5,1249.4,15.5
		c139.1,0,273.1,23.2,398,64.4c493.3,164.9,848.8,629.8,851.4,1177.2v-7.7C2500,698.1,2143.2,230.6,1647.3,64.4L1647.3,64.4z"/>
</g>
</svg>
